<svg xmlns="http://www.w3.org/2000/svg" height="511.99998pt" version="1.1" viewBox="1 1 511.99998 511.99998" width="511.99998pt">
<g id="surface1">
<path d="M 512 256 C 512 257.359375 511.988281 258.714844 511.96875 260.074219 C 511.757812 273.40625 510.539062 286.5 508.351562 299.257812 C 503.964844 325.078125 495.699219 349.582031 484.195312 372.152344 C 476.304688 387.605469 466.914062 402.148438 456.179688 415.585938 C 440.121094 435.710938 421.09375 453.351562 399.757812 467.851562 C 358.777344 495.71875 309.289062 512 256 512 C 202.710938 512 153.222656 495.71875 112.242188 467.851562 C 90.90625 453.351562 71.878906 435.710938 55.820312 415.585938 C 42.066406 398.355469 30.488281 379.308594 21.515625 358.859375 C 13.25 340.0625 7.1875 320.082031 3.648438 299.257812 C 1.460938 286.5 0.242188 273.40625 0.03125 260.074219 C 0.0117188 258.714844 0 257.359375 0 256 C 0 233.03125 3.019531 210.765625 8.703125 189.585938 C 13.699219 170.925781 20.75 153.109375 29.601562 136.390625 C 54.691406 88.992188 94.238281 50.417969 142.367188 26.550781 C 149.160156 23.164062 156.140625 20.082031 163.265625 17.324219 C 192.019531 6.132812 223.292969 0 256 0 C 288.707031 0 319.980469 6.132812 348.734375 17.324219 C 355.859375 20.082031 362.839844 23.164062 369.632812 26.550781 C 417.761719 50.417969 457.308594 88.992188 482.398438 136.390625 C 491.25 153.109375 498.300781 170.925781 503.296875 189.585938 C 508.980469 210.765625 512 233.03125 512 256 Z M 512 256 " style=" stroke:none;fill-rule:nonzero;fill:rgb(27.058824%,69.411765%,85.882353%);fill-opacity:1;" />
<path d="M 73.582031 15.671875 L 94.480469 15.671875 L 94.480469 288.390625 L 73.582031 288.390625 Z M 73.582031 15.671875 " style=" stroke:none;fill-rule:nonzero;fill:rgb(16.470588%,25.098039%,47.843137%);fill-opacity:1;" />
<path d="M 163.265625 154.78125 L 163.265625 288.390625 L 142.367188 288.390625 L 142.367188 139.285156 Z M 163.265625 154.78125 " style=" stroke:none;fill-rule:nonzero;fill:rgb(16.470588%,25.098039%,47.843137%);fill-opacity:1;" />
<path d="M 232.050781 180.464844 L 232.050781 288.390625 L 211.152344 288.390625 L 211.152344 174.277344 Z M 232.050781 180.464844 " style=" stroke:none;fill-rule:nonzero;fill:rgb(16.470588%,25.098039%,47.843137%);fill-opacity:1;" />
<path d="M 484.195312 372.152344 C 476.304688 387.605469 466.914062 402.148438 456.179688 415.585938 C 446.035156 428.292969 434.707031 440.015625 422.367188 450.570312 C 415.167969 456.734375 407.613281 462.511719 399.757812 467.851562 C 358.777344 495.71875 309.289062 512 256 512 C 202.710938 512 153.222656 495.71875 112.242188 467.851562 C 102.515625 461.238281 93.269531 453.976562 84.574219 446.121094 C 74.175781 436.757812 64.554688 426.539062 55.820312 415.585938 C 42.066406 398.355469 30.488281 379.308594 21.515625 358.859375 C 53.28125 365.496094 96.800781 369.328125 119.597656 348.367188 L 119.609375 348.367188 C 158.15625 383.8125 217.433594 383.8125 255.988281 348.359375 L 256 348.367188 C 294.546875 383.8125 353.824219 383.8125 392.378906 348.367188 L 392.378906 348.359375 L 392.402344 348.367188 C 417.917969 371.835938 452.535156 379.769531 484.195312 372.152344 Z M 484.195312 372.152344 " style=" stroke:none;fill-rule:nonzero;fill:rgb(15.294118%,54.901961%,75.294118%);fill-opacity:1;" />
<path d="M 300.847656 171.40625 L 300.847656 288.390625 L 279.949219 288.390625 L 279.949219 175.929688 Z M 300.847656 171.40625 " style=" stroke:none;fill-rule:nonzero;fill:rgb(16.470588%,25.098039%,47.843137%);fill-opacity:1;" />
<path d="M 369.632812 133.289062 L 369.632812 288.390625 L 348.734375 288.390625 L 348.734375 149.199219 Z M 369.632812 133.289062 " style=" stroke:none;fill-rule:nonzero;fill:rgb(16.470588%,25.098039%,47.843137%);fill-opacity:1;" />
<path d="M 40.148438 285.675781 L 127.914062 285.675781 L 127.914062 335.828125 L 40.148438 335.828125 Z M 40.148438 285.675781 " style=" stroke:none;fill-rule:nonzero;fill:rgb(68.627451%,76.078431%,92.156863%);fill-opacity:1;" />
<path d="M 112.242188 320.15625 L 112.242188 467.851562 C 98.09375 458.238281 84.972656 447.246094 73.058594 435.0625 C 66.976562 428.867188 61.230469 422.367188 55.820312 415.585938 L 55.820312 320.15625 Z M 112.242188 320.15625 " style=" stroke:none;fill-rule:nonzero;fill:rgb(68.627451%,76.078431%,92.156863%);fill-opacity:1;" />
<path d="M 112.242188 353.730469 L 112.242188 467.851562 C 98.09375 458.238281 84.972656 447.246094 73.058594 435.0625 L 73.058594 353.730469 Z M 112.242188 353.730469 " style=" stroke:none;fill-rule:nonzero;fill:rgb(86.27451%,92.54902%,97.647059%);fill-opacity:1;" />
<path d="M 384.085938 285.675781 L 471.851562 285.675781 L 471.851562 335.828125 L 384.085938 335.828125 Z M 384.085938 285.675781 " style=" stroke:none;fill-rule:nonzero;fill:rgb(68.627451%,76.078431%,92.156863%);fill-opacity:1;" />
<path d="M 456.179688 320.15625 L 456.179688 415.585938 C 444.582031 430.121094 431.4375 443.351562 416.996094 455.03125 C 411.4375 459.546875 405.691406 463.820312 399.757812 467.851562 L 399.757812 320.15625 Z M 456.179688 320.15625 " style=" stroke:none;fill-rule:nonzero;fill:rgb(68.627451%,76.078431%,92.156863%);fill-opacity:1;" />
<path d="M 417.519531 15.671875 L 438.417969 15.671875 L 438.417969 288.390625 L 417.519531 288.390625 Z M 417.519531 15.671875 " style=" stroke:none;fill-rule:nonzero;fill:rgb(16.470588%,25.098039%,47.843137%);fill-opacity:1;" />
<path d="M 503.296875 189.585938 L 503.296875 288.390625 L 482.398438 288.390625 L 482.398438 136.390625 C 491.25 153.109375 498.300781 170.925781 503.296875 189.585938 Z M 503.296875 189.585938 " style=" stroke:none;fill-rule:nonzero;fill:rgb(16.470588%,25.098039%,47.843137%);fill-opacity:1;" />
<path d="M 29.601562 136.390625 L 29.601562 288.390625 L 8.703125 288.390625 L 8.703125 189.585938 C 13.699219 170.925781 20.75 153.109375 29.601562 136.390625 Z M 29.601562 136.390625 " style=" stroke:none;fill-rule:nonzero;fill:rgb(16.470588%,25.098039%,47.843137%);fill-opacity:1;" />
<path d="M 511.96875 260.074219 C 511.757812 273.40625 510.539062 286.5 508.351562 299.257812 L 3.648438 299.257812 C 1.460938 286.5 0.242188 273.40625 0.03125 260.074219 Z M 511.96875 260.074219 " style=" stroke:none;fill-rule:nonzero;fill:rgb(86.27451%,92.54902%,97.647059%);fill-opacity:1;" />
<path d="M 512 145.878906 L 512 170.234375 C 473.191406 148.792969 442.984375 113.632812 427.96875 71.335938 C 402.851562 142.074219 335.246094 192.867188 256 192.867188 C 176.753906 192.867188 109.148438 142.074219 84.03125 71.335938 C 69.015625 113.632812 38.808594 148.792969 0 170.234375 L 0 145.867188 C 44.261719 117.039062 73.582031 67.101562 73.582031 10.449219 L 94.480469 10.449219 C 94.480469 99.515625 166.933594 171.96875 256 171.96875 C 345.058594 171.96875 417.519531 99.515625 417.519531 10.449219 L 438.417969 10.449219 C 438.417969 67.101562 467.738281 117.039062 512 145.878906 Z M 512 145.878906 " style=" stroke:none;fill-rule:nonzero;fill:rgb(94.901961%,26.27451%,33.333333%);fill-opacity:1;" />
<path d="M 456.179688 353.730469 L 456.179688 415.585938 C 444.582031 430.121094 431.4375 443.351562 416.996094 455.03125 L 416.996094 353.730469 Z M 456.179688 353.730469 " style=" stroke:none;fill-rule:nonzero;fill:rgb(86.27451%,92.54902%,97.647059%);fill-opacity:1;" />
<path d="M 422.367188 450.570312 C 415.167969 456.734375 407.613281 462.511719 399.757812 467.851562 C 358.777344 495.71875 309.289062 512 256 512 C 202.710938 512 153.222656 495.71875 112.242188 467.851562 C 102.515625 461.238281 93.269531 453.976562 84.574219 446.121094 C 98.167969 444.25 110.53125 439.839844 119.597656 431.492188 L 119.609375 431.492188 C 158.15625 466.933594 217.433594 466.933594 255.988281 431.492188 L 256 431.492188 C 294.546875 466.933594 353.824219 466.933594 392.378906 431.492188 L 392.402344 431.5 C 401.429688 439.796875 411.597656 446.160156 422.367188 450.570312 Z M 422.367188 450.570312 " style=" stroke:none;fill-rule:nonzero;fill:rgb(16.470588%,25.098039%,47.843137%);fill-opacity:1;" />
<path d="M 55.820312 320.15625 L 127.914062 320.15625 L 127.914062 335.828125 L 55.820312 335.828125 Z M 55.820312 320.15625 " style=" stroke:none;fill-rule:nonzero;fill:rgb(86.27451%,92.54902%,97.647059%);fill-opacity:1;" />
<path d="M 399.757812 320.15625 L 471.851562 320.15625 L 471.851562 335.828125 L 399.757812 335.828125 Z M 399.757812 320.15625 " style=" stroke:none;fill-rule:nonzero;fill:rgb(86.27451%,92.54902%,97.647059%);fill-opacity:1;" />
</g>
</svg>