<svg enable-background="new 0 0 140 140" height="512" viewBox="0 0 140 140" width="512" xmlns="http://www.w3.org/2000/svg"><circle cx="70" cy="70" fill="#e56353" r="64"/><path d="m70.0000076 133.9999847c30.7953491 0 56.5025635-21.7532959 62.6139603-50.7298584l-27.3169022-27.3117714-.0100098.0100098c-.9799805-1.1501465-2.4199829-1.9001465-4.0499878-1.9001465h-4.7099609l-22.5500488-22.5399151c-.8799438-.9400635-2.1099854-1.5300293-3.4899902-1.5300293-2.6499634 0-4.789978 2.1500225-4.789978 4.7900372 0 .6600342.1300049 1.2799072.3699951 1.8499756l-19.8099938 17.4299316h-7.4899902c-2.9500122 0-5.3400269 2.4001465-5.3400269 5.3500977v40.7199745c0 1.2199707.4200439 2.3400879 1.1099854 3.2399902h-.0099487l.1099854.1101074c.2299805.289917.5.5599365.789978.7999268l29.4924889 29.4925537c1.6779784.131836 3.3685912.2191162 5.0804442.2191162z" opacity=".1"/><path d="m43.6012764 58.7029457-1.1391258-1.2940025 27.995018-24.6303864 27.6650619 24.340271-1.1391296 1.2940026-26.5259323-23.3380623z" fill="#474c5b"/><path d="m101.2329407 54.0720863h-62.4658699c-2.9510994 0-5.3434753 2.3923759-5.3434753 5.3435135v40.7275581c0 2.9511414 2.3923759 5.3435135 5.3434753 5.3435135h62.4658699c2.9511032 0 5.3434448-2.3923721 5.3434448-5.3435135v-40.7275581c0-2.9511375-2.3923416-5.3435135-5.3434448-5.3435135z" fill="#fcd462"/><path d="m39.65416 61.410088h60.691658v37.363918h-60.691658z" fill="#00abee"/><path d="m80.5358963 73.0163803-11.3029098 21.9335327h22.6058197z" fill="#474c5b"/><path d="m63.0435448 66.0703659-14.8823738 28.8795471h29.7647476z" fill="#4d5c7d"/><circle cx="73.962" cy="69.394" fill="#fcd462" r="3.323"/><circle cx="70.487" cy="34.789" fill="#ebf0f3" r="4.789"/><circle cx="70.487" cy="34.789" fill="#4d5c7d" r="2.446"/></svg>